<?xml version="1.0" encoding="UTF-8"?>
<svg id="Layer_1" data-name="Layer 1" xmlns="http://www.w3.org/2000/svg" viewBox="0 0 310.93 89.17">
  <defs>
    <style>
      .cls-1 {
        fill: #00aeef;
      }

      .cls-2 {
        fill: #fff200;
      }

      .cls-3 {
        fill: #f37223;
      }
    </style>
  </defs>
  <path class="cls-1" d="M91.96,23.79c-.67,0-1.21,.14-1.65,.41l3.94,1.06c-.49-.97-1.25-1.47-2.29-1.47Z"/>
  <polygon class="cls-1" points="186.58 45.73 186.58 50 192.26 51.52 192.26 45.73 186.58 45.73"/>
  <path class="cls-1" d="M285.84,16.4s-4.3-1.37-5.33,2.23c0,0-4.3-1.55-6.7,1.03,0,0-13.06-.86-15.12-.17,0,0-49.27-21.09-99.32-19.39L0,0,47.96,12.85h8.84v2.37l5.88,1.58v-3.94h11.69v7.08l3.11,.83c.63-1.65,1.48-3.04,2.59-4.15,2.57-2.57,6.52-3.86,11.83-3.86,10.25,0,15.38,5.33,15.38,16,0,0,0,0,0,0l2.8,.75V12.85h12.37l4.04,21.05,1.49,.4V12.85h11.62v24.56l3.1,.83v-7.89c0-5.83,1.16-10.3,3.47-13.4,2.31-3.1,6.08-4.65,11.3-4.65,2.85,0,5.38,.52,7.61,1.57,2.22,1.05,3.97,2.61,5.25,4.7,1.28,2.08,1.91,4.71,1.91,7.88v10.39h-11.96v-8.89c0-1.8-.23-3.01-.68-3.64-.46-.63-1.16-.94-2.12-.94-1.12,0-1.87,.4-2.26,1.21-.39,.81-.58,1.89-.58,3.23v13.62l19.99,5.36V12.85h11.96v21.5h5.67V12.85h11.96V54.73l5.16,1.38-2.36-43.26h12.24l-2.39,43.78h-5.53l47.35,12.69s11.34,.69,12.72,0c1.37-.69,8.94,3.36,8.76,.31-.17-3.06-.34,3.3,5.33,2.79l25.43,.03V16.4h-25.09Z"/>
  <polygon class="cls-2" points="127.98 34.3 126.49 33.9 127.98 41.67 127.98 34.3"/>
  <path class="cls-2" d="M26.96,23.38c-1.19,0-1.96,.5-2.32,1.49-.37,.99-.55,2.14-.55,3.44v28.4c0,.8,.05,1.65,.15,2.55,.1,.9,.36,1.66,.77,2.29,.41,.63,1.08,.94,2.02,.94,.87,0,1.49-.32,1.86-.96,.38-.64,.62-1.42,.72-2.36,.1-.93,.15-1.83,.15-2.7V28.34c0-1.28-.18-2.42-.53-3.44-.35-1.01-1.11-1.52-2.27-1.52Z"/>
  <path class="cls-2" d="M209.41,56.64l-.03-.52-5.16-1.38v18.28h-11.96v-21.48l-5.67-1.52v23h-11.96v-26.21l-19.99-5.36v16.49c0,1.66,.24,2.84,.74,3.52,.49,.68,1.19,1.03,2.1,1.03,1.03,0,1.75-.42,2.17-1.26,.42-.84,.63-1.94,.63-3.28v-10.83h12.1v11.38c0,5.29-1.33,9.12-4,11.5-2.67,2.38-6.39,3.57-11.18,3.57-4.35,0-7.86-1.36-10.51-4.07-2.66-2.71-3.98-6.51-3.98-11.38v-19.86l-3.1-.83v35.6h-11.76l-6.02-30.08v30.08h-11.76V29.5l-2.8-.75c0,2.96-.4,5.4-1.2,7.33-.8,1.93-2.28,3.28-4.44,4.05,1.71,.82,2.97,1.87,3.79,3.14,.82,1.28,1.36,2.86,1.61,4.75,.25,1.89,.38,4.18,.38,6.87,0,6.02-1.26,10.65-3.78,13.91-2.52,3.26-6.69,4.89-12.53,4.89-5.31,0-9.17-1.4-11.59-4.2-2.42-2.8-3.62-7.03-3.62-12.68v-6.29h12.34v6.32c0,1.6,.2,2.95,.6,4.05,.4,1.11,1.29,1.66,2.68,1.66s2.31-.6,2.7-1.79c.39-1.2,.58-3.15,.58-5.86v-1.5c0-2.07-.35-3.88-1.04-5.43-.7-1.55-2.06-2.32-4.08-2.32-.25,0-.47,0-.67,.02-.19,.01-.36,.03-.5,.05v-10.8c2.07,0,3.66-.46,4.75-1.38s1.64-2.47,1.64-4.63c0-1.58-.22-2.78-.65-3.62l-3.94-1.06c-.4,.25-.72,.6-.93,1.07-.44,.99-.67,2.25-.67,3.78v1.81h-12.44c-.02-.27-.04-.6-.05-.99-.01-.39-.02-.76-.02-1.13,0-3.14,.43-5.79,1.27-7.98l-3.11-.83V56.91c0,5.47-1.19,9.61-3.55,12.42-2.37,2.81-6.06,4.22-11.07,4.22s-8.71-1.41-11.07-4.22c-2.37-2.81-3.55-6.96-3.55-12.42V12.85h2.85L0,0V88l166.36,1c35.13,2.33,92.33-19.67,92.33-19.67l-47.35-12.69h-1.92ZM39.61,79.4l-9.57-6.29c-1.09,.3-2.22,.44-3.38,.44-4.69,0-8.28-1.39-10.75-4.17-2.47-2.78-3.71-6.84-3.71-12.17V28.13c0-5.17,1.27-9.1,3.81-11.79,2.54-2.69,6.21-4.03,11.02-4.03s8.48,1.34,11.02,4.03c2.54,2.69,3.81,6.62,3.81,11.79v29.09c0,4.97-1.12,8.88-3.35,11.72l5.16,3.28-4.07,7.18Zm179.64-6.43h-12.24v-10.19h12.24v10.19Z"/>
  <path class="cls-2" d="M56.97,59.32c.11,.92,.38,1.68,.79,2.27,.41,.59,1.07,.89,1.98,.89s1.61-.29,2.02-.87,.67-1.34,.77-2.27c.1-.93,.15-1.9,.15-2.91V16.8l-5.88-1.58V56.43c0,1,.06,1.97,.17,2.89Z"/>
  <path class="cls-3" d="M41.87,57.22V28.13c0-5.17-1.27-9.1-3.81-11.79-2.54-2.69-6.22-4.03-11.02-4.03s-8.48,1.34-11.02,4.03c-2.54,2.69-3.81,6.62-3.81,11.79v29.09c0,5.33,1.24,9.39,3.71,12.17,2.47,2.78,6.05,4.17,10.75,4.17,1.16,0,2.29-.15,3.38-.44l9.57,6.29,4.07-7.18-5.16-3.28c2.23-2.85,3.35-6.76,3.35-11.72Zm-12.1-.75c0,.87-.05,1.77-.15,2.7-.1,.93-.34,1.72-.72,2.36-.38,.64-1,.96-1.86,.96-.93,0-1.61-.31-2.02-.94-.41-.63-.67-1.39-.77-2.29-.1-.9-.15-1.75-.15-2.55V28.3c0-1.3,.18-2.44,.55-3.44,.36-.99,1.14-1.49,2.32-1.49s1.92,.51,2.27,1.52c.35,1.01,.53,2.16,.53,3.44v28.13Z"/>
  <path class="cls-3" d="M45.11,56.91c0,5.47,1.18,9.61,3.55,12.42,2.37,2.81,6.06,4.22,11.07,4.22s8.7-1.41,11.07-4.22c2.37-2.81,3.55-6.96,3.55-12.42V12.85h-11.69V56.43c0,1-.05,1.97-.15,2.91-.1,.93-.36,1.69-.77,2.27s-1.08,.87-2.02,.87-1.57-.3-1.98-.89c-.41-.59-.67-1.35-.79-2.27-.11-.92-.17-1.89-.17-2.89V12.85h-11.69V56.91Z"/>
  <path class="cls-3" d="M76.22,29.87c.01,.39,.03,.72,.05,.99h12.44v-1.81c0-1.53,.22-2.79,.67-3.78,.21-.47,.53-.83,.93-1.07,.44-.27,.99-.41,1.65-.41,1.05,0,1.8,.5,2.29,1.47,.43,.84,.65,2.04,.65,3.62,0,2.17-.55,3.71-1.64,4.63s-2.68,1.38-4.75,1.38v10.8c.14-.02,.3-.04,.5-.05,.19-.01,.42-.02,.67-.02,2.03,0,3.39,.77,4.08,2.32,.7,1.55,1.04,3.36,1.04,5.43v1.5c0,2.71-.19,4.67-.58,5.86-.39,1.2-1.29,1.79-2.7,1.79s-2.29-.55-2.68-1.66c-.4-1.1-.6-2.46-.6-4.05v-6.32h-12.34v6.29c0,5.65,1.21,9.88,3.62,12.68,2.42,2.8,6.28,4.2,11.59,4.2,5.83,0,10.01-1.63,12.53-4.89,2.52-3.26,3.78-7.9,3.78-13.91,0-2.69-.13-4.98-.38-6.87-.25-1.89-.79-3.47-1.61-4.75-.82-1.28-2.08-2.32-3.79-3.14,2.16-.77,3.65-2.12,4.44-4.05,.8-1.92,1.2-4.37,1.2-7.33,0,0,0,0,0,0,0-10.66-5.13-16-15.38-16-5.31,0-9.25,1.29-11.83,3.86-1.11,1.11-1.96,2.5-2.59,4.15-.84,2.19-1.27,4.84-1.27,7.98,0,.36,0,.74,.02,1.13Z"/>
  <polygon class="cls-3" points="121.83 73.01 121.83 42.93 127.84 73.01 139.6 73.01 139.6 37.41 139.6 12.85 127.98 12.85 127.98 34.3 127.98 41.67 126.49 33.9 122.44 12.85 110.07 12.85 110.07 29.5 110.07 73.01 121.83 73.01"/>
  <path class="cls-3" d="M146.69,69.49c2.65,2.71,6.16,4.07,10.51,4.07,4.79,0,8.51-1.19,11.18-3.57,2.67-2.38,4-6.21,4-11.5v-11.38h-12.1v10.83c0,1.34-.21,2.44-.63,3.28-.42,.84-1.14,1.26-2.17,1.26-.91,0-1.61-.34-2.1-1.03-.49-.68-.74-1.86-.74-3.52V27.82c0-1.34,.19-2.42,.58-3.23,.39-.81,1.14-1.21,2.26-1.21,.96,0,1.66,.31,2.12,.94,.46,.63,.68,1.84,.68,3.64v8.89h11.96v-10.39c0-3.17-.64-5.79-1.91-7.88-1.28-2.08-3.03-3.65-5.25-4.7-2.22-1.05-4.76-1.57-7.61-1.57-5.22,0-8.98,1.55-11.3,4.65-2.31,3.1-3.47,7.57-3.47,13.4v27.75c0,4.88,1.33,8.67,3.98,11.38Z"/>
  <polygon class="cls-3" points="186.58 73.01 186.58 50 186.58 45.73 192.26 45.73 192.26 51.52 192.26 73.01 204.22 73.01 204.22 54.73 204.22 12.85 192.26 12.85 192.26 34.35 186.58 34.35 186.58 12.85 174.62 12.85 174.62 46.8 174.62 73.01 186.58 73.01"/>
  <rect class="cls-3" x="207.02" y="62.79" width="12.24" height="10.19"/>
  <polygon class="cls-3" points="211.33 56.64 216.86 56.64 219.25 12.85 207.02 12.85 209.38 56.11 209.41 56.64 211.33 56.64"/>
</svg>